<?xml version="1.0" standalone="no"?>
<!DOCTYPE svg PUBLIC "-//W3C//DTD SVG 20010904//EN"
 "http://www.w3.org/TR/2001/REC-SVG-20010904/DTD/svg10.dtd">
<svg version="1.0" xmlns="http://www.w3.org/2000/svg"
 width="3465.000000pt" height="2311.000000pt" viewBox="0 0 3465.000000 2311.000000"
 preserveAspectRatio="xMidYMid meet">

<g transform="translate(0.000000,2311.000000) scale(0.100000,-0.100000)"
fill="#000000" stroke="none">
<path d="M1 20538 l0 -2573 55 -43 c321 -254 707 -503 1139 -736 156 -85 588
-300 652 -325 18 -8 30 -18 26 -24 -3 -5 -1 -7 5 -3 5 3 39 -7 74 -23 115 -53
159 -72 336 -148 182 -77 319 -133 327 -133 3 0 5 1112 5 2471 l0 2471 -32 28
c-18 15 -118 99 -223 186 -104 87 -206 172 -225 190 -19 18 -47 42 -63 54 -15
12 -24 27 -20 33 3 7 3 9 -2 5 -11 -10 -126 92 -118 105 3 5 1 7 -4 4 -23 -14
-660 612 -916 901 l-118 132 -450 0 -449 0 1 -2572z"/>
<path d="M971 23083 c100 -112 138 -154 249 -272 68 -73 155 -163 192 -199 37
-36 65 -69 61 -75 -3 -6 -1 -7 4 -4 13 8 46 -27 36 -37 -5 -4 -3 -6 3 -4 7 2
74 -58 151 -132 235 -229 461 -432 730 -657 105 -89 190 -164 187 -167 -2 -3
-1 -4 3 -1 3 3 12 0 20 -6 11 -10 13 120 13 785 l0 796 -837 0 -837 0 25 -27z"/>
<path d="M2660 22298 l0 -813 100 -79 c55 -43 100 -84 100 -89 0 -6 3 -7 6 -4
6 5 53 -27 101 -68 6 -5 57 -43 112 -84 56 -41 101 -78 101 -83 0 -4 6 -8 13
-8 7 0 26 -11 42 -25 17 -14 75 -57 130 -95 54 -39 101 -74 105 -78 3 -5 13
-11 23 -15 11 -4 15 -12 11 -18 -4 -8 -3 -9 4 -5 12 7 102 -51 102 -66 0 -4 5
-8 12 -8 16 0 118 -71 118 -82 0 -5 4 -7 9 -4 5 3 20 -5 35 -19 14 -13 26 -21
26 -18 0 3 7 0 15 -7 8 -7 12 -17 8 -23 -4 -6 0 -8 10 -4 15 6 137 -74 145
-95 2 -4 8 -6 12 -3 5 3 18 -3 29 -14 11 -11 22 -17 25 -14 3 4 6 1 6 -5 0 -7
3 -11 8 -10 12 3 112 -63 112 -75 0 -5 3 -7 6 -4 11 10 44 -12 44 -29 0 -10 6
-14 14 -11 18 7 58 -21 50 -35 -4 -7 -2 -8 4 -4 13 8 52 -10 69 -33 7 -9 13
-12 13 -8 0 4 9 3 20 -3 11 -6 17 -16 14 -25 -4 -8 -2 -15 4 -15 6 0 12 5 14
11 3 8 10 6 20 -5 9 -9 21 -16 27 -16 5 0 15 -8 20 -17 6 -10 11 -14 11 -10 0
4 9 3 20 -3 11 -6 18 -15 15 -20 -3 -5 3 -10 12 -12 17 -3 17 -4 0 -11 -11 -4
-24 0 -35 11 -10 9 -38 28 -62 41 -25 13 -51 31 -57 39 -7 9 -13 13 -13 9 0
-4 -9 -3 -20 3 -11 6 -20 18 -20 28 0 15 -2 15 -10 2 -8 -13 -10 -12 -10 3 0
9 -5 17 -11 17 -5 0 -7 -5 -3 -11 3 -6 -5 -3 -20 6 -14 9 -24 21 -21 25 3 5 0
12 -6 16 -8 4 -9 3 -5 -4 4 -7 2 -12 -3 -12 -6 0 -11 5 -11 11 0 5 -4 8 -9 4
-12 -7 -33 29 -23 41 4 5 -1 2 -10 -5 -12 -9 -18 -10 -18 -2 0 6 -7 11 -16 11
-8 0 -12 4 -9 10 3 5 0 7 -8 4 -8 -3 -20 2 -27 11 -7 8 -17 15 -22 15 -12 0
-132 80 -136 91 -2 5 -9 9 -15 9 -22 0 -237 151 -231 162 4 7 2 8 -4 4 -9 -5
-195 111 -212 133 -3 3 -17 12 -32 20 -14 7 -40 26 -57 42 -17 15 -31 25 -31
22 0 -4 -10 2 -22 13 -13 11 -33 27 -45 35 -104 69 -211 154 -206 162 3 6 1 7
-4 4 -13 -8 -289 201 -285 215 1 5 -1 7 -6 4 -4 -2 -42 22 -83 54 l-74 60 -3
-2462 c-1 -1618 1 -2465 8 -2472 5 -5 15 -11 22 -12 12 -2 52 -17 283 -107 44
-17 82 -33 85 -36 3 -3 11 -6 18 -7 39 -3 43 -5 36 -16 -5 -7 -3 -8 5 -3 7 4
29 0 49 -8 21 -9 96 -37 167 -63 72 -26 131 -51 133 -55 2 -4 10 -5 18 -2 8 3
14 1 14 -4 0 -5 12 -10 26 -11 15 -1 41 -9 57 -17 17 -8 36 -15 44 -15 7 0 30
-7 51 -16 39 -18 46 -20 75 -22 9 -1 17 -7 17 -13 0 -6 -9 -8 -22 -4 -18 5
-20 4 -8 -4 8 -6 12 -11 8 -11 -6 0 -181 61 -218 77 -8 3 -22 7 -30 8 -17 3
-263 90 -360 128 -36 13 -152 57 -257 97 -106 40 -190 76 -188 80 3 5 -4 6
-15 3 -20 -5 -20 -13 -20 -2464 l0 -2459 1550 0 c1543 0 1550 0 1550 -20 0
-20 -7 -20 -1550 -20 l-1550 0 0 -2464 0 -2465 63 25 c212 85 460 173 469 168
6 -4 9 -3 5 2 -3 5 52 29 121 53 70 24 169 59 221 78 51 19 100 32 108 29 8
-3 12 -2 9 3 -4 5 20 17 51 26 32 10 87 28 123 40 110 39 132 45 141 39 5 -3
9 -1 9 4 0 4 22 15 49 24 46 14 49 14 44 -1 -3 -11 1 -9 14 5 19 23 178 78
194 68 17 -10 9 -26 -11 -21 -11 3 -18 2 -15 -3 5 -8 -82 -35 -99 -31 -4 1
-14 -4 -22 -10 -8 -6 -14 -8 -14 -3 0 5 -4 4 -8 -3 -8 -13 -114 -45 -144 -45
-10 1 -18 -4 -18 -10 0 -5 -7 -7 -16 -4 -8 3 -13 2 -10 -3 3 -5 -5 -11 -19
-13 -14 -3 -25 -1 -25 6 0 6 -5 3 -11 -7 -11 -19 -34 -24 -24 -5 4 7 1 6 -7
-3 -15 -18 -106 -51 -119 -43 -5 3 -9 0 -9 -6 0 -7 -7 -10 -15 -6 -8 3 -15 2
-15 -3 0 -11 -71 -31 -84 -24 -6 3 -7 2 -3 -2 4 -5 -36 -24 -90 -42 -54 -19
-165 -59 -248 -89 -82 -31 -193 -71 -245 -90 -52 -19 -103 -40 -113 -45 -10
-5 -22 -7 -27 -4 -4 3 -10 1 -12 -3 -1 -5 -47 -25 -100 -46 l-98 -38 0 -2464
c0 -1961 3 -2464 12 -2458 7 5 66 50 131 101 65 51 123 91 128 87 5 -3 8 -1 7
4 -3 10 223 189 252 200 8 3 20 13 27 21 7 9 13 13 13 9 0 -3 13 6 29 20 42
39 170 125 187 125 8 0 14 6 14 13 0 13 48 47 67 47 7 0 10 4 8 7 -5 8 98 80
114 80 5 0 11 4 13 8 6 17 110 82 121 75 5 -3 7 -1 4 4 -4 6 5 19 19 28 15 9
23 12 20 6 -4 -6 -2 -11 3 -11 6 0 11 6 11 13 0 14 156 124 182 129 7 2 18 10
25 18 7 8 13 11 13 7 0 -4 10 1 22 13 12 11 28 20 35 20 7 0 13 4 13 8 0 14
81 62 92 55 7 -3 8 -1 4 5 -4 7 -1 12 8 12 8 0 16 5 18 12 4 12 28 3 28 -12 0
-12 -70 -51 -80 -45 -5 3 -12 0 -16 -6 -5 -8 -3 -9 6 -4 9 5 11 4 6 -4 -6 -9
-11 -9 -24 1 -13 11 -15 10 -9 -4 4 -12 -3 -23 -27 -37 -41 -26 -53 -27 -35
-3 13 15 12 16 -3 3 -10 -7 -16 -17 -13 -21 6 -9 -14 -27 -34 -32 -7 -2 -25
-13 -38 -25 -14 -12 -35 -25 -47 -29 -11 -4 -23 -11 -27 -15 -3 -5 -42 -33
-87 -63 -55 -36 -90 -53 -105 -50 -19 4 -19 3 -3 -4 17 -7 16 -9 -8 -25 -15
-10 -32 -15 -38 -11 -7 4 -8 3 -4 -4 3 -6 -3 -16 -16 -23 -12 -6 -31 -20 -42
-31 -11 -10 -26 -16 -34 -13 -7 2 -11 1 -7 -4 3 -5 -49 -47 -116 -93 -66 -46
-127 -89 -134 -95 -8 -7 -18 -13 -23 -13 -6 0 -12 -4 -14 -8 -5 -12 -116 -92
-128 -92 -5 0 -10 -4 -10 -8 0 -5 -17 -21 -37 -35 -30 -21 -40 -24 -52 -14
-14 10 -14 10 -3 -5 12 -14 10 -19 -15 -35 -15 -10 -99 -73 -185 -141 -87 -67
-160 -122 -163 -122 -3 0 -17 -12 -30 -27 l-24 -28 -1 -772 0 -773 1828 0
c1449 0 1831 3 1841 12 11 10 12 10 7 1 -6 -10 787 -13 3866 -13 6848 0 24037
0 24241 0 l197 0 0 11545 0 11545 -14210 0 c-10521 0 -14209 -3 -14207 -11 1
-6 -4 -14 -11 -16 -8 -3 -10 1 -6 11 6 15 -154 16 -1770 16 l-1776 0 0 -812z
m3610 777 c4 3 10 -4 13 -15 3 -13 0 -20 -10 -20 -8 0 -12 4 -8 9 3 5 1 12 -5
16 -5 3 -10 12 -9 18 0 9 2 8 6 -1 2 -6 8 -10 13 -7z m35 -55 c3 -6 -1 -7 -9
-4 -18 7 -21 14 -7 14 6 0 13 -4 16 -10z m60 -18 c-3 -3 -11 0 -18 7 -9 10 -8
11 6 5 10 -3 15 -9 12 -12z m14 -35 c12 -15 12 -17 -3 -11 -9 3 -16 13 -16 22
0 8 1 13 3 11 1 -2 9 -12 16 -22z m198 -9 c-3 -7 -5 -2 -5 12 0 14 2 19 5 13
2 -7 2 -19 0 -25z m-152 1 c2 -9 -3 -16 -11 -16 -10 0 -11 4 -3 13 7 8 6 14
-1 17 -6 3 -6 5 1 3 7 -1 13 -9 14 -17z m16 -32 c-10 -9 -11 -8 -5 6 3 10 9
15 12 12 3 -3 0 -11 -7 -18z m136 -23 c-3 -3 -12 -4 -19 -1 -8 3 -5 6 6 6 11
1 17 -2 13 -5z m-22 -33 c3 -5 1 -12 -5 -16 -5 -3 -10 1 -10 9 0 18 6 21 15 7z
m30 -31 c3 -5 1 -10 -4 -10 -6 0 -11 5 -11 10 0 6 2 10 4 10 3 0 8 -4 11 -10z
m39 -45 c4 -13 2 -14 -14 -5 -11 6 -26 8 -32 4 -7 -4 -8 -3 -4 4 10 17 43 15
50 -3z m46 -11 c0 -2 -7 -4 -15 -4 -8 0 -15 4 -15 10 0 5 7 7 15 4 8 -4 15 -8
15 -10z m195 -146 c5 4 5 2 1 -5 -8 -14 -36 -6 -36 9 0 7 5 6 13 -1 8 -6 18
-7 22 -3z m74 -31 c-2 -1 -12 -9 -22 -16 -15 -12 -17 -12 -11 3 3 9 13 16 22
16 8 0 13 -1 11 -3z m41 -41 c0 -3 -4 -8 -10 -11 -5 -3 -10 -1 -10 4 0 6 5 11
10 11 6 0 10 -2 10 -4z m120 -96 c8 -5 12 -11 10 -14 -3 -2 -14 2 -24 10 -22
15 -10 19 14 4z m-2431 -2380 c18 -17 41 -30 52 -30 11 0 24 -10 29 -22 5 -13
9 -18 9 -11 1 7 8 10 16 7 8 -4 12 -11 8 -17 -4 -6 0 -8 9 -4 17 6 53 -25 41
-36 -3 -4 0 -7 7 -7 7 0 11 -2 8 -5 -7 -8 -100 43 -115 63 -7 9 -13 13 -13 9
0 -4 -13 -1 -30 8 -16 9 -30 22 -30 30 0 8 -8 12 -17 11 -23 -5 -90 40 -71 46
21 8 62 -10 97 -42z m218 -142 c-3 -8 -6 -5 -6 6 -1 11 2 17 5 13 3 -3 4 -12
1 -19z m38 -8 c-3 -5 1 -10 10 -10 10 0 37 -14 62 -30 24 -17 60 -37 79 -45
33 -13 41 -25 28 -38 -8 -7 -54 13 -54 25 0 4 -7 8 -15 8 -8 0 -14 5 -12 11 1
6 -11 13 -28 16 -16 2 -36 11 -42 20 -7 9 -13 14 -13 10 0 -4 -9 2 -20 13 -24
24 -25 30 -4 30 8 0 12 -4 9 -10z m221 -135 c-3 -9 0 -15 9 -15 8 0 15 -5 15
-10 0 -11 -18 -3 -50 21 -13 9 -12 10 3 5 9 -3 17 -1 17 4 0 6 3 10 6 10 3 0
4 -7 0 -15z m54 -25 c0 -5 -4 -10 -10 -10 -5 0 -10 5 -10 10 0 6 5 10 10 10 6
0 10 -4 10 -10z m25 -21 c-3 -5 2 -6 11 -2 11 4 23 -2 35 -18 22 -29 25 -46 4
-25 -8 8 -15 19 -15 25 0 6 -4 11 -10 11 -5 0 -7 -8 -4 -17 4 -11 3 -14 -3 -7
-4 6 -16 13 -25 17 -11 4 -15 12 -12 22 3 8 10 12 15 9 5 -3 7 -10 4 -15z
m102 -55 c4 -11 8 -12 13 -4 5 8 15 4 34 -13 21 -20 23 -26 11 -31 -8 -3 -15
-1 -15 5 0 6 -4 8 -9 5 -4 -3 -20 8 -35 24 -14 17 -21 30 -16 30 6 0 13 -7 17
-16z m149 -70 c24 -12 34 -23 33 -38 -1 -17 -2 -17 -6 -3 -2 9 -13 17 -24 17
-10 0 -19 5 -19 11 0 6 -9 8 -20 4 -19 -6 -27 5 -13 18 9 9 10 9 49 -9z m85
-55 c5 -8 9 -10 9 -4 0 5 5 4 12 -3 7 -7 8 -15 3 -20 -6 -5 -23 4 -39 19 -21
20 -25 27 -12 25 10 -1 22 -9 27 -17z m54 -30 c-3 -5 2 -6 11 -2 12 4 15 3 10
-5 -4 -7 -15 -12 -26 -12 -13 0 -17 5 -13 20 3 11 9 17 14 14 5 -3 7 -10 4
-15z m85 -38 c0 -6 -5 -13 -12 -17 -6 -4 -8 -3 -4 4 3 5 0 13 -6 15 -8 3 -6 6
5 6 9 1 17 -3 17 -8z m67 -61 c3 -10 2 -11 -4 -4 -4 6 -15 14 -23 17 -11 5 -9
6 4 4 11 -1 21 -9 23 -17z m80 -22 c4 -7 14 -13 22 -13 8 0 15 -8 17 -17 2
-14 -2 -16 -15 -9 -24 13 -56 51 -43 51 6 0 15 -6 19 -12z m106 -58 c10 -10 9
-11 -3 -4 -8 5 -21 9 -28 10 -8 2 -17 5 -20 8 -3 4 4 5 16 3 12 -2 28 -9 35
-17z m47 -19 c0 -6 -4 -12 -8 -15 -5 -3 -9 1 -9 9 0 8 4 15 9 15 4 0 8 -4 8
-9z m50 -49 c-15 -5 -41 18 -34 30 3 5 15 1 26 -9 11 -10 15 -19 8 -21z m195
-72 c3 -5 1 -10 -4 -10 -6 0 -11 5 -11 10 0 6 2 10 4 10 3 0 8 -4 11 -10z m85
-55 c0 -8 -2 -15 -4 -15 -2 0 -6 7 -10 15 -3 8 -1 15 4 15 6 0 10 -7 10 -15z
m30 -21 c0 -8 -5 -12 -10 -9 -6 4 -8 11 -5 16 9 14 15 11 15 -7z m94 -32 c3
-5 -5 -8 -17 -7 -12 2 -21 8 -19 14 3 15 -15 14 -21 -1 -3 -7 -4 -3 -4 9 1 20
3 21 28 7 15 -8 30 -18 33 -22z m106 22 c0 -8 -5 -12 -10 -9 -6 4 -8 11 -5 16
9 14 15 11 15 -7z m-65 -44 c3 -6 -1 -7 -9 -4 -18 7 -21 14 -7 14 6 0 13 -4
16 -10z m70 -20 c-3 -5 -14 -10 -23 -9 -14 0 -13 2 3 9 27 11 27 11 20 0z m96
-77 c13 -16 12 -17 -3 -4 -17 13 -22 21 -14 21 2 0 10 -8 17 -17z m44 -13 c4
-6 11 -7 17 -4 7 4 8 2 4 -5 -6 -9 -12 -9 -24 1 -10 7 -19 14 -21 15 -2 2 1 3
7 3 6 0 14 -5 17 -10z m89 -52 c-3 -4 -11 -5 -19 -2 -11 5 -12 9 -2 19 12 13
31 -1 21 -17z m64 -23 c-3 -3 -9 2 -12 12 -6 14 -5 15 5 6 7 -7 10 -15 7 -18z
m127 -54 c3 -5 2 -12 -3 -15 -5 -3 -9 1 -9 9 0 17 3 19 12 6z m580 -260 c3 -5
2 -12 -3 -15 -5 -3 -9 1 -9 9 0 17 3 19 12 6z m-3769 -2510 c-4 -5 4 -7 16 -4
21 5 22 4 8 -10 -20 -21 -65 -12 -47 9 13 15 31 19 23 5z m101 -28 c13 -3 21
-9 18 -13 -3 -5 4 -6 15 -3 12 3 20 0 20 -6 0 -7 4 -10 9 -7 8 5 100 -23 111
-34 3 -3 11 -5 18 -6 34 -3 39 -5 39 -19 0 -17 -23 -20 -32 -5 -4 6 -11 8 -16
5 -5 -4 -15 -3 -21 2 -7 4 -21 9 -31 10 -10 2 -28 9 -40 15 -12 7 -33 13 -46
15 -13 1 -41 11 -64 22 -22 11 -44 18 -49 15 -4 -3 -8 -1 -8 5 0 13 22 21 40
14 8 -3 25 -8 37 -10z m284 -93 c5 0 9 -7 9 -15 0 -16 16 -21 22 -7 3 10 131
-28 136 -40 2 -4 7 -6 12 -3 5 3 21 0 37 -6 15 -6 36 -12 45 -14 54 -11 135
-41 146 -54 10 -13 12 -13 13 0 0 8 2 9 5 3 3 -7 14 -9 26 -6 16 4 19 2 13 -8
-6 -10 -4 -12 8 -7 10 3 17 2 17 -3 0 -5 7 -7 15 -4 16 7 51 -23 41 -34 -4 -3
-11 0 -16 8 -5 8 -12 12 -15 8 -8 -8 -145 29 -162 44 -7 6 -13 7 -13 3 0 -4
-7 -2 -15 5 -8 6 -20 8 -26 4 -7 -4 -9 -3 -6 3 4 6 0 13 -8 17 -8 3 -15 0 -16
-7 0 -9 -2 -9 -5 0 -3 7 -12 9 -20 6 -8 -3 -17 2 -20 12 -5 13 -9 14 -15 3 -7
-10 -9 -11 -9 0 0 7 -4 11 -8 8 -10 -6 -112 23 -112 32 0 4 -15 8 -33 8 -46 2
-87 21 -87 40 0 11 5 14 16 10 9 -3 20 -6 25 -6z m603 -187 c8 -8 14 -10 47
-12 18 -1 19 -4 9 -16 -9 -10 -17 -12 -30 -5 -9 5 -20 7 -23 3 -4 -3 -13 -1
-20 5 -8 7 -17 9 -20 5 -4 -3 -7 -2 -7 4 0 21 29 31 44 16z m127 -45 c3 -5 13
-6 22 -2 10 3 17 1 17 -5 0 -12 -51 -15 -87 -5 -13 4 -23 11 -23 16 0 6 7 7
16 4 9 -4 13 -2 8 5 -8 14 38 1 47 -13z m79 -12 c0 -2 -6 -9 -13 -15 -10 -8
-14 -7 -14 4 0 8 6 15 14 15 7 0 13 -2 13 -4z m79 -26 c12 0 21 -4 21 -9 0 -6
9 -8 20 -6 13 3 18 0 14 -7 -5 -8 -1 -9 9 -5 10 4 27 3 40 -2 12 -5 26 -9 30
-9 4 0 20 -8 34 -17 14 -9 22 -12 19 -6 -4 6 -2 11 3 11 6 0 11 -4 11 -10 0
-5 7 -7 15 -3 9 3 15 2 14 -3 -3 -21 2 -28 11 -14 5 8 12 11 16 7 4 -4 3 -12
-2 -17 -12 -12 -77 5 -98 25 -11 11 -16 12 -20 2 -4 -9 -8 -9 -11 -1 -3 7 -15
10 -25 7 -14 -4 -20 0 -20 12 0 14 -3 15 -15 5 -9 -7 -15 -8 -15 -2 0 5 -6 10
-12 9 -39 -1 -59 4 -52 14 3 6 -1 10 -12 9 -36 -4 -64 0 -64 9 0 13 32 19 52
9 9 -4 26 -8 37 -8z m276 -90 c-3 -5 3 -10 14 -10 11 0 23 -5 26 -10 4 -7 -3
-8 -22 -4 -15 4 -30 8 -32 10 -4 3 8 24 15 24 3 0 2 -4 -1 -10z m65 -9 c0 -5
10 -7 22 -3 14 3 19 2 14 -6 -10 -17 -43 -15 -50 3 -3 8 -1 15 4 15 6 0 10 -4
10 -9z m106 -32 c3 -5 17 -9 32 -10 l27 0 -24 -10 c-18 -7 -30 -5 -48 6 -15
10 -32 13 -46 9 -19 -6 -20 -5 -9 8 12 16 57 13 68 -3z m114 -41 c0 -11 -28
-10 -35 1 -3 6 4 9 15 8 11 -1 20 -5 20 -9z m35 2 c3 -5 -1 -10 -10 -10 -9 0
-13 5 -10 10 3 6 8 10 10 10 2 0 7 -4 10 -10z m30 -10 c-3 -5 1 -10 9 -10 9 0
16 -4 16 -9 0 -5 -9 -7 -20 -4 -21 5 -28 33 -9 33 5 0 7 -4 4 -10z m119 -35
c-4 -8 -11 -12 -16 -9 -6 4 -5 10 3 15 19 12 19 11 13 -6z m33 -17 c-3 -8 -6
-5 -6 6 -1 11 2 17 5 13 3 -3 4 -12 1 -19z m66 -14 c-4 -11 -9 -12 -19 -3 -18
15 -18 14 5 16 14 1 18 -3 14 -13z m72 -24 c3 -5 2 -10 -4 -10 -5 0 -13 5 -16
10 -3 6 -2 10 4 10 5 0 13 -4 16 -10z m65 0 c0 -5 -2 -10 -4 -10 -3 0 -8 5
-11 10 -3 6 -1 10 4 10 6 0 11 -4 11 -10z m120 -35 c0 -17 -18 -19 -40 -4 -12
8 -10 9 9 4 16 -5 21 -4 17 4 -4 6 -2 11 3 11 6 0 11 -7 11 -15z m54 -16 c-3
-5 -14 -9 -25 -9 -16 0 -18 2 -7 14 14 14 42 10 32 -5z m191 -39 c8 -13 -5
-13 -25 0 -13 8 -13 10 2 10 9 0 20 -4 23 -10z m155 -14 c0 -11 -19 -15 -25
-6 -3 5 1 10 9 10 9 0 16 -2 16 -4z m16 -28 c4 -7 4 -10 -1 -6 -4 4 -14 3 -21
-3 -8 -7 -14 -6 -20 2 -4 7 -3 9 4 5 6 -3 13 -2 17 4 8 13 12 13 21 -2z m61
-30 c-3 -8 -6 -5 -6 6 -1 11 2 17 5 13 3 -3 4 -12 1 -19z m53 6 c0 -8 -19 -13
-24 -6 -3 5 1 9 9 9 8 0 15 -2 15 -3z m70 -32 c0 -5 -7 -9 -15 -9 -8 0 -12 4
-9 9 3 4 9 8 15 8 5 0 9 -4 9 -8z m-200 -3752 c0 -5 -5 -10 -11 -10 -5 0 -7 5
-4 10 3 6 8 10 11 10 2 0 4 -4 4 -10z m7 -2748 c-1 -499 -2 -90 -2 908 0 998
1 1407 2 907 2 -499 2 -1315 0 -1815z m648 -812 c-3 -5 -12 -10 -18 -10 -7 0
-6 4 3 10 19 12 23 12 15 0z m-161 -47 c-5 -5 -12 -12 -16 -18 -4 -6 -8 -2 -8
8 0 9 7 17 17 17 9 0 12 -3 7 -7z m-267 -65 c-3 -8 -6 -5 -6 6 -1 11 2 17 5
13 3 -3 4 -12 1 -19z m43 2 c-8 -5 -19 -10 -25 -10 -5 0 -3 5 5 10 8 5 20 10
25 10 6 0 3 -5 -5 -10z m-115 -22 c-9 -6 -19 -7 -22 -4 -4 3 -1 6 6 6 7 0 9 4
6 10 -4 6 1 7 11 3 15 -6 15 -7 -1 -15z m-245 -47 c0 -5 10 -7 23 -4 17 4 19
3 7 -6 -8 -5 -26 -7 -39 -4 -17 4 -22 3 -16 -6 5 -9 1 -9 -14 1 l-21 13 22 7
c34 9 38 9 38 -1z m-153 -48 c0 -9 -4 -10 -13 -2 -8 7 -14 7 -18 0 -4 -6 -14
-7 -24 -4 -14 6 -13 8 8 13 37 9 47 8 47 -7z m-122 -23 c3 -6 -1 -7 -9 -4 -18
7 -21 14 -7 14 6 0 13 -4 16 -10z m-40 -11 c11 -16 1 -19 -13 -3 -7 8 -8 14
-3 14 5 0 13 -5 16 -11z m-35 -9 c0 -5 -7 -7 -15 -4 -8 4 -15 8 -15 10 0 2 7
4 15 4 8 0 15 -4 15 -10z m-50 -20 c0 -5 -7 -7 -15 -4 -8 4 -12 10 -9 15 6 11
24 2 24 -11z m-40 0 c0 -5 -2 -10 -4 -10 -3 0 -8 5 -11 10 -3 6 -1 10 4 10 6
0 11 -4 11 -10z m-175 -49 c3 -5 0 -13 -6 -17 -7 -4 -9 -3 -5 4 3 5 0 13 -6
15 -9 4 -10 6 -1 6 6 1 14 -3 18 -8z m35 -1 c0 -5 -5 -10 -11 -10 -5 0 -7 5
-4 10 3 6 8 10 11 10 2 0 4 -4 4 -10z m-75 -21 c-10 -15 -25 -10 -19 6 4 8 10
12 15 9 5 -3 7 -10 4 -15z m-55 1 c-13 -9 -13 -10 0 -11 10 0 8 -3 -5 -8 -11
-5 -24 -3 -31 3 -9 8 -7 13 10 18 32 9 43 9 26 -2z m-45 -28 c-8 -8 -55 -11
-55 -3 0 4 14 8 30 8 17 0 28 -2 25 -5z m-105 -22 c-28 -22 -45 -26 -34 -9 4
7 1 10 -7 7 -8 -3 -13 -11 -11 -18 2 -8 -4 -11 -17 -7 -11 3 -22 0 -23 -5 -2
-6 -10 -3 -17 6 -12 14 -11 16 8 16 11 0 23 -1 24 -2 2 -2 11 3 19 10 9 7 24
9 33 5 13 -4 16 -3 11 5 -5 8 1 12 16 12 l23 0 -25 -20z m-139 -40 c6 0 7 4 4
10 -3 6 1 7 9 4 21 -8 12 -21 -19 -26 -15 -3 -25 -1 -25 7 0 16 14 29 18 16 2
-6 8 -11 13 -11z m-71 -18 c0 -5 -13 -7 -30 -4 -16 2 -30 6 -30 8 0 2 14 4 30
4 17 0 30 -4 30 -8z m-71 -11 c14 -9 10 -13 -23 -25 -15 -5 -17 -4 -8 7 7 8 9
17 5 20 -9 10 10 8 26 -2z m-69 -26 c8 -9 9 -15 2 -15 -6 0 -13 4 -16 9 -3 4
-18 7 -33 5 -28 -4 -28 -4 -3 5 35 13 36 13 50 -4z m-66 -14 c19 -7 19 -8 1
-15 -12 -4 -24 -1 -34 9 -13 13 -13 15 -1 14 8 0 24 -4 34 -8z m-34 -22 c0 -9
-28 -13 -64 -9 -13 1 -16 -2 -10 -12 4 -7 4 -10 -1 -6 -4 4 -16 3 -27 -3 -11
-6 -33 -7 -51 -3 -34 8 -33 9 97 39 10 2 21 6 23 9 7 7 33 -5 33 -15z m-182
-47 c3 -9 -57 -28 -78 -24 -3 0 -11 -4 -17 -10 -7 -6 -19 -8 -27 -5 -8 3 -17
1 -19 -6 -2 -7 -8 -9 -12 -4 -5 4 0 14 11 22 24 18 38 19 28 3 -4 -7 2 -5 14
5 11 11 26 16 31 12 6 -3 11 -1 11 6 0 6 8 9 20 6 12 -3 18 -1 14 5 -4 6 -1 9
6 6 8 -2 15 -9 18 -16z m-186 -39 c-6 -2 -10 -8 -7 -13 3 -4 -9 -13 -27 -19
-41 -14 -45 -14 -45 4 0 9 5 14 11 12 6 -2 22 2 36 10 14 7 30 13 35 12 6 0 4
-3 -3 -6z m-95 -38 c0 -16 -24 -28 -38 -19 -5 3 -9 0 -9 -5 0 -6 -4 -11 -10
-11 -16 0 -7 24 15 37 27 17 42 16 42 -2z m-79 -32 c-8 -10 -14 -11 -16 -4 -5
15 -23 14 -19 -1 1 -7 -12 -12 -35 -12 -24 0 -38 -5 -38 -13 0 -7 -3 -13 -7
-13 -5 0 -18 -3 -30 -6 -17 -5 -23 -2 -23 10 0 9 3 15 8 14 4 -1 19 4 35 10
15 7 38 14 50 16 12 2 33 9 47 14 31 12 45 5 28 -15z m-178 -47 c0 -6 -30 -21
-67 -33 -61 -19 -69 -20 -83 -6 -13 14 -13 15 3 10 9 -4 17 -2 17 4 0 6 9 9
20 6 11 -3 18 -1 14 4 -5 8 18 13 54 12 6 -1 12 2 12 6 0 4 7 8 15 8 8 0 15
-5 15 -11z m2363 -3061 c-3 -9 -8 -14 -10 -11 -3 3 -2 9 2 15 9 16 15 13 8 -4z
m-26 -21 c-3 -3 -12 -4 -19 -1 -8 3 -5 6 6 6 11 1 17 -2 13 -5z m-50 -36 c-3
-8 -6 -5 -6 6 -1 11 2 17 5 13 3 -3 4 -12 1 -19z m-73 -23 c-4 -8 -11 -12 -16
-9 -6 4 -5 10 3 15 19 12 19 11 13 -6z m-146 -81 c-14 -14 -16 -14 -21 0 -4
10 -1 13 9 9 7 -3 14 1 14 8 0 7 3 9 7 5 4 -3 0 -13 -9 -22z m-41 -9 c0 -8 -4
-12 -9 -9 -5 3 -6 10 -3 15 9 13 12 11 12 -6z m-33 -20 c-7 -17 -20 -20 -28
-6 -7 10 3 21 20 21 8 0 11 -6 8 -15z m-64 -35 c0 -5 -14 -8 -31 -8 -18 1 -25
4 -18 9 7 4 19 5 27 1 11 -4 13 -1 7 8 -5 9 -4 11 3 6 7 -4 12 -11 12 -16z
m-50 -32 c0 -4 -4 -8 -9 -8 -6 0 -12 4 -15 8 -3 5 1 9 9 9 8 0 15 -4 15 -9z
m-45 -7 c-3 -2 -16 -6 -28 -8 -15 -2 -18 0 -9 5 14 9 45 12 37 3z m262 -2724
c-1 -501 -2 -91 -2 913 0 1004 1 1414 2 912 2 -501 2 -1323 0 -1825z m-343
2678 c-7 -18 -20 -19 -30 -3 -4 6 -3 8 4 4 6 -3 13 -2 17 4 9 15 15 12 9 -5z
m-42 -19 c7 4 8 2 4 -5 -9 -13 -26 -5 -25 12 0 9 2 8 6 -1 2 -6 10 -9 15 -6z
m-36 -15 c0 -19 -19 -22 -33 -6 -4 4 -3 5 3 2 7 -4 14 0 18 8 7 20 12 19 12
-4z m-52 -26 c3 -9 -3 -19 -14 -25 -18 -10 -19 -9 -8 15 13 29 14 30 22 10z
m-79 -41 c12 -5 14 -9 4 -14 -15 -10 -41 -1 -33 11 6 11 8 11 29 3z m-45 -22
c0 -13 -12 -22 -22 -16 -10 6 -1 24 13 24 5 0 9 -4 9 -8z m-44 -11 c-4 -5 0
-12 6 -14 8 -3 6 -6 -4 -6 -18 -1 -24 10 -11 22 9 10 15 8 9 -2z m-60 -40 c-4
-5 -1 -11 6 -13 8 -3 6 -6 -4 -10 -11 -5 -15 -2 -13 10 5 23 4 22 11 22 3 0 3
-4 0 -9z m-31 -20 c-3 -6 -11 -11 -16 -11 -5 0 -4 6 3 14 14 16 24 13 13 -3z
m-35 -23 c0 -18 -2 -20 -9 -8 -6 8 -7 18 -5 22 9 14 14 9 14 -14z m-20 -19 c0
-5 -9 -9 -19 -9 -11 0 -23 -4 -26 -10 -3 -5 -12 -10 -18 -10 -7 0 -4 6 5 14
10 7 14 17 10 21 -4 5 -1 5 6 1 6 -4 12 -3 12 3 0 6 7 8 15 5 8 -4 15 -10 15
-15z m-86 -36 c-5 -5 -12 -12 -16 -18 -4 -6 -8 -2 -8 8 0 9 7 17 17 17 9 0 12
-3 7 -7z m-40 -20 c-5 -5 -12 -12 -16 -18 -4 -6 -8 -2 -8 8 0 9 7 17 17 17 9
0 12 -3 7 -7z m-34 -22 c0 -6 -4 -12 -8 -15 -5 -3 -9 1 -9 9 0 8 4 15 9 15 4
0 8 -4 8 -9z m-39 -19 c-5 -10 -22 -24 -38 -32 -15 -8 -44 -24 -64 -37 -25
-15 -40 -18 -47 -11 -6 6 -12 6 -16 -1 -4 -6 -1 -11 6 -11 7 -1 -3 -8 -23 -18
-20 -9 -43 -23 -53 -31 -9 -7 -16 -10 -16 -5 0 5 -5 2 -10 -6 -6 -9 -10 -11
-10 -3 0 7 -7 10 -15 7 -8 -4 -15 -12 -15 -20 0 -8 -6 -14 -13 -14 -8 0 -14 7
-14 15 0 15 49 38 80 38 9 0 17 6 17 14 0 9 6 13 15 9 8 -3 14 0 12 7 -1 7 4
11 11 10 6 -2 12 1 12 7 0 5 10 14 21 21 13 7 19 7 15 1 -3 -6 -2 -13 3 -16 9
-6 24 9 27 27 1 4 2 10 3 15 1 4 5 1 10 -7 5 -7 14 -10 21 -6 9 6 9 9 -1 16
-11 7 -9 9 6 10 11 1 27 3 35 3 8 1 14 8 12 15 -1 7 2 10 8 6 5 -3 10 -1 10 4
0 6 5 11 10 11 7 0 7 -6 1 -18z m-336 -201 c-6 -5 -25 10 -25 20 0 5 6 4 14
-3 8 -7 12 -15 11 -17z m-42 2 c-6 -19 -32 -43 -45 -43 -5 0 -3 6 4 14 7 8 16
12 19 10 4 -2 9 5 12 16 3 11 8 20 11 20 3 0 3 -8 -1 -17z m-66 -55 c-3 -8 -6
-5 -6 6 -1 11 2 17 5 13 3 -3 4 -12 1 -19z m-19 -7 c-2 -9 -11 -15 -21 -15 -9
1 -14 -2 -11 -7 3 -5 -1 -9 -9 -9 -8 0 -20 -7 -27 -15 -16 -19 -40 -19 -40 0
0 16 36 39 48 31 5 -3 14 3 21 13 16 22 43 23 39 2z m-121 -60 c1 -11 -5 -22
-13 -25 -8 -3 -14 -1 -14 4 0 5 -7 7 -15 4 -25 -10 -17 5 13 20 15 8 27 15 27
16 1 0 1 -9 2 -19z m-74 -42 c-3 -11 -13 -23 -22 -26 -9 -3 -24 -13 -33 -21
-16 -14 -18 -13 -18 6 0 17 6 22 25 22 14 0 29 8 35 20 14 26 20 26 13 -1z
m-83 -58 c0 -11 -71 -54 -77 -47 -3 3 -12 -2 -20 -10 -8 -8 -19 -12 -24 -8 -5
3 -8 2 -7 -3 3 -8 -5 -13 -23 -13 -15 0 8 21 52 48 23 14 44 20 55 15 13 -5
16 -3 11 10 -5 12 -1 17 13 17 11 0 20 -4 20 -9z m-158 -91 c4 -3 -6 -14 -24
-24 -17 -11 -28 -14 -24 -7 4 6 3 11 -2 11 -5 0 -12 -8 -14 -18 -3 -10 -21
-26 -41 -35 -20 -10 -39 -22 -42 -27 -3 -5 -13 -6 -22 -3 -9 4 -14 2 -10 -3 3
-5 -11 -20 -30 -33 -19 -12 -32 -17 -28 -9 3 7 0 5 -8 -4 -8 -10 -19 -18 -25
-18 -6 0 -12 -4 -14 -9 -1 -4 -22 -20 -45 -34 -34 -22 -43 -24 -53 -12 -9 11
-7 16 10 25 12 7 31 9 42 7 16 -4 17 -3 7 9 -11 14 -2 19 24 15 4 -1 10 6 13
14 4 8 12 15 19 15 7 0 15 4 17 9 2 5 48 36 103 69 79 47 103 57 114 48 11 -8
13 -8 7 2 -8 14 3 37 13 25 3 -4 9 -10 13 -13z m2633 -2260 c-3 -5 -12 -10
-18 -10 -7 0 -6 4 3 10 19 12 23 12 15 0z m-565 -401 c0 -5 -8 -9 -17 -8 -11
0 -13 3 -5 6 6 2 9 10 6 15 -4 7 -2 8 4 4 7 -4 12 -11 12 -17z m-140 -81 c0
-5 -5 -8 -11 -8 -5 0 -8 4 -4 9 3 5 1 12 -5 16 -5 3 -10 11 -10 18 0 12 29
-23 30 -35z m40 18 c0 -2 -7 -7 -16 -10 -8 -3 -12 -2 -9 4 6 10 25 14 25 6z
m-70 -60 c0 -3 -4 -8 -10 -11 -5 -3 -10 -1 -10 4 0 6 5 11 10 11 6 0 10 -2 10
-4z m-106 -65 c4 -5 -3 -7 -14 -4 -23 6 -26 13 -6 13 8 0 17 -4 20 -9z m-74
-40 c0 -5 -8 -15 -17 -22 -16 -12 -17 -12 -6 2 7 9 10 19 6 22 -3 4 -1 7 5 7
7 0 12 -4 12 -9z"/>
<path d="M4610 20111 c0 -6 4 -13 10 -16 6 -3 7 1 4 9 -7 18 -14 21 -14 7z"/>
<path d="M4800 19996 c0 -2 7 -7 16 -10 8 -3 12 -2 9 4 -6 10 -25 14 -25 6z"/>
<path d="M5067 19839 c7 -7 15 -10 18 -7 3 3 -2 9 -12 12 -14 6 -15 5 -6 -5z"/>
<path d="M5345 19680 c3 -5 8 -10 11 -10 2 0 4 5 4 10 0 6 -5 10 -11 10 -5 0
-7 -4 -4 -10z"/>
<path d="M4570 2925 c-7 -8 -17 -12 -23 -8 -6 3 -7 1 -3 -5 5 -9 12 -8 26 1
11 6 20 15 20 19 0 12 -6 10 -20 -7z"/>
<path d="M3745 20660 c-3 -5 -1 -10 4 -10 6 0 11 5 11 10 0 6 -2 10 -4 10 -3
0 -8 -4 -11 -10z"/>
<path d="M0 14736 l0 -3186 1310 0 1310 0 0 2471 0 2470 -42 18 c-24 10 -102
42 -175 72 -73 30 -129 58 -126 64 4 5 3 7 -1 3 -10 -8 -66 11 -176 61 -47 22
-138 62 -202 91 -65 29 -118 57 -118 62 0 5 -4 7 -9 3 -13 -8 -599 290 -805
409 -392 228 -612 374 -942 629 l-24 19 0 -3186z"/>
<path d="M0 8324 c0 -3132 0 -3186 19 -3173 11 8 83 63 161 122 465 352 1118
719 1880 1057 85 38 162 70 170 72 8 2 17 6 20 9 11 13 353 149 361 143 5 -3
9 998 9 2475 l0 2481 -1310 0 -1310 0 0 -3186z"/>
<path d="M2456 6464 c-87 -35 -163 -61 -168 -58 -5 3 -19 -3 -31 -14 -30 -27
-337 -163 -350 -155 -6 3 -7 1 -3 -5 4 -7 2 -12 -5 -12 -24 0 -642 -311 -844
-425 -405 -228 -765 -467 -1007 -668 l-48 -39 0 -2534 0 -2534 483 0 482 0 90
102 c121 138 665 688 681 688 6 0 14 6 17 14 7 18 396 370 503 455 5 5 44 38
86 74 41 37 78 63 82 60 3 -4 6 -2 6 4 0 6 27 33 61 60 33 26 76 62 95 78 l34
30 -2 2472 -3 2471 -159 -64z m-166 -68 c0 -2 -7 -7 -16 -10 -8 -3 -12 -2 -9
4 6 10 25 14 25 6z"/>
<path d="M2500 1441 c-58 -49 -109 -86 -114 -83 -5 3 -6 0 -3 -5 7 -11 -20
-28 -36 -24 -5 1 -6 -3 -3 -7 8 -14 -31 -45 -45 -36 -7 4 -10 3 -6 -3 4 -6
-24 -37 -61 -69 -131 -113 -328 -290 -441 -396 -63 -59 -119 -104 -125 -101
-6 3 -8 2 -3 -2 4 -5 -93 -110 -216 -234 -214 -217 -427 -445 -427 -456 0 -3
360 -5 800 -5 l800 0 0 755 c0 415 -3 755 -7 755 -5 -1 -55 -41 -113 -89z"/>
</g>
</svg>
